<?xml version="1.0" encoding="UTF-8" standalone="no"?>
<!-- Created with Inkscape (http://www.inkscape.org/) -->

<svg
   xmlns:dc="http://purl.org/dc/elements/1.1/"
   xmlns:cc="http://creativecommons.org/ns#"
   xmlns:rdf="http://www.w3.org/1999/02/22-rdf-syntax-ns#"
   xmlns:svg="http://www.w3.org/2000/svg"
   xmlns="http://www.w3.org/2000/svg"
   xmlns:sodipodi="http://sodipodi.sourceforge.net/DTD/sodipodi-0.dtd"
   xmlns:inkscape="http://www.inkscape.org/namespaces/inkscape"
   width="210mm"
   height="297mm"
   id="svg2"
   version="1.1"
   inkscape:version="0.47 r22583"
   sodipodi:docname="a.svg">
  <defs
     id="defs4">
    <inkscape:perspective
       sodipodi:type="inkscape:persp3d"
       inkscape:vp_x="0 : 526.18109 : 1"
       inkscape:vp_y="0 : 1000 : 0"
       inkscape:vp_z="744.09448 : 526.18109 : 1"
       inkscape:persp3d-origin="372.04724 : 350.78739 : 1"
       id="perspective10" />
    <inkscape:perspective
       id="perspective3600"
       inkscape:persp3d-origin="0.5 : 0.33333333 : 1"
       inkscape:vp_z="1 : 0.5 : 1"
       inkscape:vp_y="0 : 1000 : 0"
       inkscape:vp_x="0 : 0.5 : 1"
       sodipodi:type="inkscape:persp3d" />
    <inkscape:perspective
       id="perspective3622"
       inkscape:persp3d-origin="0.5 : 0.33333333 : 1"
       inkscape:vp_z="1 : 0.5 : 1"
       inkscape:vp_y="0 : 1000 : 0"
       inkscape:vp_x="0 : 0.5 : 1"
       sodipodi:type="inkscape:persp3d" />
    <inkscape:perspective
       id="perspective3650"
       inkscape:persp3d-origin="0.5 : 0.33333333 : 1"
       inkscape:vp_z="1 : 0.5 : 1"
       inkscape:vp_y="0 : 1000 : 0"
       inkscape:vp_x="0 : 0.5 : 1"
       sodipodi:type="inkscape:persp3d" />
    <inkscape:perspective
       id="perspective3682"
       inkscape:persp3d-origin="0.5 : 0.33333333 : 1"
       inkscape:vp_z="1 : 0.5 : 1"
       inkscape:vp_y="0 : 1000 : 0"
       inkscape:vp_x="0 : 0.5 : 1"
       sodipodi:type="inkscape:persp3d" />
    <inkscape:perspective
       id="perspective3704"
       inkscape:persp3d-origin="0.5 : 0.33333333 : 1"
       inkscape:vp_z="1 : 0.5 : 1"
       inkscape:vp_y="0 : 1000 : 0"
       inkscape:vp_x="0 : 0.5 : 1"
       sodipodi:type="inkscape:persp3d" />
    <inkscape:perspective
       id="perspective3726"
       inkscape:persp3d-origin="0.5 : 0.33333333 : 1"
       inkscape:vp_z="1 : 0.5 : 1"
       inkscape:vp_y="0 : 1000 : 0"
       inkscape:vp_x="0 : 0.5 : 1"
       sodipodi:type="inkscape:persp3d" />
    <inkscape:perspective
       id="perspective3748"
       inkscape:persp3d-origin="0.5 : 0.33333333 : 1"
       inkscape:vp_z="1 : 0.5 : 1"
       inkscape:vp_y="0 : 1000 : 0"
       inkscape:vp_x="0 : 0.5 : 1"
       sodipodi:type="inkscape:persp3d" />
    <inkscape:perspective
       id="perspective3773"
       inkscape:persp3d-origin="0.5 : 0.33333333 : 1"
       inkscape:vp_z="1 : 0.5 : 1"
       inkscape:vp_y="0 : 1000 : 0"
       inkscape:vp_x="0 : 0.5 : 1"
       sodipodi:type="inkscape:persp3d" />
    <inkscape:perspective
       id="perspective3800"
       inkscape:persp3d-origin="0.5 : 0.33333333 : 1"
       inkscape:vp_z="1 : 0.5 : 1"
       inkscape:vp_y="0 : 1000 : 0"
       inkscape:vp_x="0 : 0.5 : 1"
       sodipodi:type="inkscape:persp3d" />
    <inkscape:perspective
       id="perspective3800-1"
       inkscape:persp3d-origin="0.5 : 0.33333333 : 1"
       inkscape:vp_z="1 : 0.5 : 1"
       inkscape:vp_y="0 : 1000 : 0"
       inkscape:vp_x="0 : 0.5 : 1"
       sodipodi:type="inkscape:persp3d" />
    <inkscape:perspective
       id="perspective3831"
       inkscape:persp3d-origin="0.5 : 0.33333333 : 1"
       inkscape:vp_z="1 : 0.5 : 1"
       inkscape:vp_y="0 : 1000 : 0"
       inkscape:vp_x="0 : 0.5 : 1"
       sodipodi:type="inkscape:persp3d" />
    <inkscape:perspective
       id="perspective3904"
       inkscape:persp3d-origin="0.5 : 0.33333333 : 1"
       inkscape:vp_z="1 : 0.5 : 1"
       inkscape:vp_y="0 : 1000 : 0"
       inkscape:vp_x="0 : 0.5 : 1"
       sodipodi:type="inkscape:persp3d" />
    <inkscape:perspective
       id="perspective3977"
       inkscape:persp3d-origin="0.5 : 0.33333333 : 1"
       inkscape:vp_z="1 : 0.5 : 1"
       inkscape:vp_y="0 : 1000 : 0"
       inkscape:vp_x="0 : 0.5 : 1"
       sodipodi:type="inkscape:persp3d" />
    <inkscape:perspective
       id="perspective2869"
       inkscape:persp3d-origin="0.5 : 0.33333333 : 1"
       inkscape:vp_z="1 : 0.5 : 1"
       inkscape:vp_y="0 : 1000 : 0"
       inkscape:vp_x="0 : 0.5 : 1"
       sodipodi:type="inkscape:persp3d" />
  </defs>
  <sodipodi:namedview
     id="base"
     pagecolor="#ffffff"
     bordercolor="#666666"
     borderopacity="1.0"
     inkscape:pageopacity="0.0"
     inkscape:pageshadow="2"
     inkscape:zoom="0.8085"
     inkscape:cx="324.44944"
     inkscape:cy="277.61371"
     inkscape:document-units="px"
     inkscape:current-layer="layer1"
     showgrid="false"
     inkscape:window-width="1024"
     inkscape:window-height="712"
     inkscape:window-x="-4"
     inkscape:window-y="-4"
     inkscape:window-maximized="1" />
  <metadata
     id="metadata7">
    <rdf:RDF>
      <cc:Work
         rdf:about="">
        <dc:format>image/svg+xml</dc:format>
        <dc:type
           rdf:resource="http://purl.org/dc/dcmitype/StillImage" />
        <dc:title />
      </cc:Work>
    </rdf:RDF>
  </metadata>
  <g
     inkscape:label="レイヤー 1"
     inkscape:groupmode="layer"
     id="layer1">
    <rect
       style="fill:#ff0000;fill-opacity:1;stroke:none"
       id="rect2816"
       width="130.50093"
       height="32.764374"
       x="28.571428"
       y="35.219326" />
    <rect
       style="fill:#0000ff;fill-opacity:1;stroke:none"
       id="rect2818"
       width="128.63327"
       height="35.868893"
       x="29.066172"
       y="89.467934"
       ry="12.368584" />
    <rect
       style="fill:#00ff00;fill-opacity:1;stroke:none"
       id="rect2818-9"
       width="128.63327"
       height="35.868893"
       x="29.066174"
       y="143.88971"
       ry="12.368584"
       rx="54.799999" />
    <rect
       style="fill:#ff0000;fill-opacity:1;stroke:#000000;stroke-opacity:1"
       id="rect2816-7"
       width="130.50093"
       height="32.764374"
       x="179.02905"
       y="35.132744" />
    <rect
       style="fill:#0000ff;fill-opacity:1;stroke:#ff0000;stroke-opacity:1"
       id="rect2818-6"
       width="128.63327"
       height="35.868893"
       x="179.5238"
       y="89.381355"
       ry="12.368584" />
    <rect
       style="fill:#00ff00;fill-opacity:1;stroke:#ff0000;stroke-opacity:1"
       id="rect2818-9-1"
       width="128.63327"
       height="35.868893"
       x="179.5238"
       y="143.80313"
       ry="12.368584"
       rx="54.799999" />
    <rect
       style="fill:#ff0000;fill-opacity:1;stroke:#000000;stroke-opacity:1;stroke-width:2;stroke-miterlimit:4;stroke-dasharray:none"
       id="rect2816-7-4"
       width="130.50093"
       height="32.764374"
       x="323.12308"
       y="35.751167" />
    <rect
       style="fill:#0000ff;fill-opacity:1;stroke:#ff0000;stroke-opacity:1;stroke-width:2;stroke-miterlimit:4;stroke-dasharray:none"
       id="rect2818-6-2"
       width="128.63327"
       height="35.868893"
       x="323.61783"
       y="89.999779"
       ry="12.368584" />
    <rect
       style="fill:#00ff00;fill-opacity:1;stroke:#ffff00;stroke-opacity:1;stroke-width:2;stroke-miterlimit:4;stroke-dasharray:none"
       id="rect2818-9-1-3"
       width="128.63327"
       height="35.868893"
       x="323.61783"
       y="144.42157"
       ry="12.368584"
       rx="54.799999" />
    <path
       sodipodi:type="arc"
       style="fill:#ff0000;fill-opacity:1;stroke:none;stroke-width:2;stroke-miterlimit:4;stroke-opacity:1;stroke-dasharray:none;stroke-dashoffset:0"
       id="path3672"
       sodipodi:cx="86.270874"
       sodipodi:cy="249.9503"
       sodipodi:rx="47.309834"
       sodipodi:ry="47.309834"
       d="m 133.58071,249.9503 a 47.309834,47.309834 0 1 1 -94.61967,0 47.309834,47.309834 0 1 1 94.61967,0 z" />
    <path
       transform="translate(-0.30921445,72.047009)"
       sodipodi:type="arc"
       style="fill:#0000ff;fill-opacity:1;stroke:none"
       id="path3672-2"
       sodipodi:cx="86.270874"
       sodipodi:cy="249.9503"
       sodipodi:rx="47.309834"
       sodipodi:ry="13.296228"
       d="m 133.58071,249.9503 a 47.309834,13.296228 0 1 1 -94.61967,0 47.309834,13.296228 0 1 1 94.61967,0 z" />
    <path
       transform="translate(157.54483,-0.77303503)"
       sodipodi:type="arc"
       style="fill:#ff0000;fill-opacity:1;stroke:#000000;stroke-width:1;stroke-miterlimit:4;stroke-dasharray:none;stroke-opacity:1"
       id="path3672-5"
       sodipodi:cx="86.270874"
       sodipodi:cy="249.9503"
       sodipodi:rx="47.309834"
       sodipodi:ry="47.309834"
       d="m 133.58071,249.9503 a 47.309834,47.309834 0 1 1 -94.61967,0 47.309834,47.309834 0 1 1 94.61967,0 z" />
    <path
       transform="translate(157.23562,71.273975)"
       sodipodi:type="arc"
       style="fill:#0000ff;fill-opacity:1;stroke:#000000;stroke-width:1;stroke-miterlimit:4;stroke-dasharray:none;stroke-opacity:1"
       id="path3672-2-4"
       sodipodi:cx="86.270874"
       sodipodi:cy="249.9503"
       sodipodi:rx="47.309834"
       sodipodi:ry="13.296228"
       d="m 133.58071,249.9503 a 47.309834,13.296228 0 1 1 -94.61967,0 47.309834,13.296228 0 1 1 94.61967,0 z" />
    <path
       transform="translate(305.96784,-2.0098935)"
       sodipodi:type="arc"
       style="fill:#ff0000;fill-opacity:1;stroke:#0000ff;stroke-width:2;stroke-miterlimit:4;stroke-opacity:1;stroke-dasharray:none"
       id="path3672-5-2"
       sodipodi:cx="86.270874"
       sodipodi:cy="249.9503"
       sodipodi:rx="47.309834"
       sodipodi:ry="47.309834"
       d="m 133.58071,249.9503 a 47.309834,47.309834 0 1 1 -94.61967,0 47.309834,47.309834 0 1 1 94.61967,0 z" />
    <path
       transform="translate(305.65863,70.037117)"
       sodipodi:type="arc"
       style="fill:#0000ff;fill-opacity:1;stroke:#ff0000;stroke-width:2;stroke-miterlimit:4;stroke-opacity:1;stroke-dasharray:none"
       id="path3672-2-4-3"
       sodipodi:cx="86.270874"
       sodipodi:cy="249.9503"
       sodipodi:rx="47.309834"
       sodipodi:ry="13.296228"
       d="m 133.58071,249.9503 a 47.309834,13.296228 0 1 1 -94.61967,0 47.309834,13.296228 0 1 1 94.61967,0 z" />
    <path
       sodipodi:type="arc"
       style="fill:#ff0000;fill-opacity:1;stroke:none;stroke-width:2;stroke-miterlimit:4;stroke-opacity:1;stroke-dasharray:none;stroke-dashoffset:0"
       id="path3790"
       sodipodi:cx="498.14471"
       sodipodi:cy="247.16737"
       sodipodi:rx="17.006804"
       sodipodi:ry="44.526901"
       d="m 515.15152,247.16737 a 17.006804,44.526901 0 1 1 -34.01361,0 17.006804,44.526901 0 1 1 34.01361,0 z" />
    <path
       transform="translate(75.757574,2.4737204)"
       sodipodi:type="arc"
       style="fill:#ff0000;fill-opacity:1;stroke:#0000ff;stroke-width:1;stroke-miterlimit:4;stroke-opacity:1;stroke-dasharray:none;stroke-dashoffset:0"
       id="path3790-4"
       sodipodi:cx="498.14471"
       sodipodi:cy="247.16737"
       sodipodi:rx="17.006804"
       sodipodi:ry="44.526901"
       d="m 515.15152,247.16737 a 17.006804,44.526901 0 1 1 -34.01361,0 17.006804,44.526901 0 1 1 34.01361,0 z" />
    <path
       transform="translate(141.9295,1.855291)"
       sodipodi:type="arc"
       style="fill:#ff0000;fill-opacity:1;stroke:#0000ff;stroke-width:2;stroke-miterlimit:4;stroke-opacity:1;stroke-dasharray:none;stroke-dashoffset:0"
       id="path3790-1"
       sodipodi:cx="498.14471"
       sodipodi:cy="247.16737"
       sodipodi:rx="17.006804"
       sodipodi:ry="44.526901"
       d="m 515.15152,247.16737 a 17.006804,44.526901 0 1 1 -34.01361,0 17.006804,44.526901 0 1 1 34.01361,0 z" />
    <rect
       style="fill:#ff0000;fill-opacity:1;stroke:none"
       id="rect2816-4"
       width="65.250465"
       height="32.764374"
       x="49.026062"
       y="367.36868" />
    <rect
       style="fill:#0000ff;fill-opacity:1;stroke:none"
       id="rect2818-60"
       width="64.316635"
       height="35.868893"
       x="49.273438"
       y="421.61731"
       ry="12.368584" />
    <rect
       style="fill:#00ff00;fill-opacity:1;stroke:none"
       id="rect2818-9-7"
       width="64.316635"
       height="35.868893"
       x="49.273438"
       y="476.03909"
       ry="12.368584"
       rx="27.4" />
    <rect
       style="fill:#ff0000;fill-opacity:1;stroke:#000000;stroke-width:0.70710677;stroke-opacity:1"
       id="rect2816-7-1"
       width="65.250465"
       height="32.764374"
       x="124.25488"
       y="367.2821" />
    <rect
       style="fill:#0000ff;fill-opacity:1;stroke:#ff0000;stroke-width:0.70710677;stroke-opacity:1"
       id="rect2818-6-7"
       width="64.316635"
       height="35.868893"
       x="124.50226"
       y="421.53073"
       ry="12.368584" />
    <rect
       style="fill:#00ff00;fill-opacity:1;stroke:#ff0000;stroke-width:0.70710677;stroke-opacity:1"
       id="rect2818-9-1-7"
       width="64.316635"
       height="35.868893"
       x="124.50226"
       y="475.95248"
       ry="12.368584"
       rx="27.4" />
    <rect
       style="fill:#ff0000;fill-opacity:1;stroke:#000000;stroke-width:1.41421354;stroke-miterlimit:4;stroke-opacity:1;stroke-dasharray:none"
       id="rect2816-7-4-7"
       width="65.250465"
       height="32.764374"
       x="196.30188"
       y="367.90054" />
    <rect
       style="fill:#0000ff;fill-opacity:1;stroke:#ff0000;stroke-width:1.41421354;stroke-miterlimit:4;stroke-opacity:1;stroke-dasharray:none"
       id="rect2818-6-2-7"
       width="64.316635"
       height="35.868893"
       x="196.54926"
       y="422.14914"
       ry="12.368584" />
    <rect
       style="fill:#00ff00;fill-opacity:1;stroke:#ffff00;stroke-width:1.41421354;stroke-miterlimit:4;stroke-opacity:1;stroke-dasharray:none"
       id="rect2818-9-1-3-3"
       width="64.316635"
       height="35.868893"
       x="196.54926"
       y="476.57095"
       ry="12.368584"
       rx="27.4" />
    <path
       transform="matrix(0.5,0,0,1,34.740352,332.14938)"
       sodipodi:type="arc"
       style="fill:#ff0000;fill-opacity:1;stroke:none"
       id="path3672-3"
       sodipodi:cx="86.270874"
       sodipodi:cy="249.9503"
       sodipodi:rx="47.309834"
       sodipodi:ry="47.309834"
       d="m 133.58071,249.9503 a 47.309834,47.309834 0 1 1 -94.61967,0 47.309834,47.309834 0 1 1 94.61967,0 z" />
    <path
       transform="matrix(0.5,0,0,1,34.585742,404.19639)"
       sodipodi:type="arc"
       style="fill:#0000ff;fill-opacity:1;stroke:none"
       id="path3672-2-5"
       sodipodi:cx="86.270874"
       sodipodi:cy="249.9503"
       sodipodi:rx="47.309834"
       sodipodi:ry="13.296228"
       d="m 133.58071,249.9503 a 47.309834,13.296228 0 1 1 -94.61967,0 47.309834,13.296228 0 1 1 94.61967,0 z" />
    <path
       transform="matrix(0.5,0,0,1,113.51276,331.37634)"
       sodipodi:type="arc"
       style="fill:#ff0000;fill-opacity:1;stroke:#000000;stroke-width:1;stroke-miterlimit:4;stroke-opacity:1;stroke-dasharray:none"
       id="path3672-5-9"
       sodipodi:cx="86.270874"
       sodipodi:cy="249.9503"
       sodipodi:rx="47.309834"
       sodipodi:ry="47.309834"
       d="m 133.58071,249.9503 a 47.309834,47.309834 0 1 1 -94.61967,0 47.309834,47.309834 0 1 1 94.61967,0 z" />
    <path
       transform="matrix(0.5,0,0,1,113.35816,403.42335)"
       sodipodi:type="arc"
       style="fill:#0000ff;fill-opacity:1;stroke:#000000;stroke-width:1;stroke-miterlimit:4;stroke-opacity:1;stroke-dasharray:none"
       id="path3672-2-4-9"
       sodipodi:cx="86.270874"
       sodipodi:cy="249.9503"
       sodipodi:rx="47.309834"
       sodipodi:ry="13.296228"
       d="m 133.58071,249.9503 a 47.309834,13.296228 0 1 1 -94.61967,0 47.309834,13.296228 0 1 1 94.61967,0 z" />
    <path
       transform="matrix(0.5,0,0,1,187.72427,330.13948)"
       sodipodi:type="arc"
       style="fill:#ff0000;fill-opacity:1;stroke:#0000ff;stroke-width:2;stroke-miterlimit:4;stroke-opacity:1;stroke-dasharray:none"
       id="path3672-5-2-8"
       sodipodi:cx="86.270874"
       sodipodi:cy="249.9503"
       sodipodi:rx="47.309834"
       sodipodi:ry="47.309834"
       d="m 133.58071,249.9503 a 47.309834,47.309834 0 1 1 -94.61967,0 47.309834,47.309834 0 1 1 94.61967,0 z" />
    <path
       transform="matrix(0.5,0,0,1,187.56966,402.18649)"
       sodipodi:type="arc"
       style="fill:#0000ff;fill-opacity:1;stroke:#ff0000;stroke-width:2;stroke-miterlimit:4;stroke-opacity:1;stroke-dasharray:none"
       id="path3672-2-4-3-1"
       sodipodi:cx="86.270874"
       sodipodi:cy="249.9503"
       sodipodi:rx="47.309834"
       sodipodi:ry="13.296228"
       d="m 133.58071,249.9503 a 47.309834,13.296228 0 1 1 -94.61967,0 47.309834,13.296228 0 1 1 94.61967,0 z" />
    <path
       transform="matrix(0.5,0,0,1,34.740352,332.14938)"
       sodipodi:type="arc"
       style="fill:#ff0000;fill-opacity:1;stroke:none"
       id="path3790-8"
       sodipodi:cx="498.14471"
       sodipodi:cy="247.16737"
       sodipodi:rx="17.006804"
       sodipodi:ry="44.526901"
       d="m 515.15152,247.16737 a 17.006804,44.526901 0 1 1 -34.01361,0 17.006804,44.526901 0 1 1 34.01361,0 z" />
    <path
       transform="matrix(0.5,0,0,1,72.619132,334.6231)"
       sodipodi:type="arc"
       style="fill:#ff0000;fill-opacity:1;stroke:#0000ff;stroke-width:1;stroke-miterlimit:4;stroke-opacity:1;stroke-dasharray:none;stroke-dashoffset:0"
       id="path3790-4-2"
       sodipodi:cx="498.14471"
       sodipodi:cy="247.16737"
       sodipodi:rx="17.006804"
       sodipodi:ry="44.526901"
       d="m 515.15152,247.16737 a 17.006804,44.526901 0 1 1 -34.01361,0 17.006804,44.526901 0 1 1 34.01361,0 z" />
    <path
       transform="matrix(0.5,0,0,1,105.7051,334.00467)"
       sodipodi:type="arc"
       style="fill:#ff0000;fill-opacity:1;stroke:#0000ff;stroke-width:2;stroke-miterlimit:4;stroke-opacity:1;stroke-dasharray:none;stroke-dashoffset:0"
       id="path3790-1-6"
       sodipodi:cx="498.14471"
       sodipodi:cy="247.16737"
       sodipodi:rx="17.006804"
       sodipodi:ry="44.526901"
       d="m 515.15152,247.16737 a 17.006804,44.526901 0 1 1 -34.01361,0 17.006804,44.526901 0 1 1 34.01361,0 z" />
    <rect
       style="fill:#ff0000;fill-opacity:1;stroke:none"
       id="rect2816-1"
       width="130.50093"
       height="32.764374"
       x="-221.64421"
       y="692.76086"
       transform="matrix(0.93969262,-0.34202014,0.34202014,0.93969262,0,0)" />
    <rect
       style="fill:#0000ff;fill-opacity:1;stroke:none"
       id="rect2818-7"
       width="128.63327"
       height="35.868893"
       x="-240.20802"
       y="743.49414"
       ry="12.368584"
       transform="matrix(0.93969262,-0.34202014,0.34202014,0.93969262,0,0)" />
    <rect
       style="fill:#00ff00;fill-opacity:1;stroke:none"
       id="rect2818-9-4"
       width="128.63327"
       height="35.868893"
       x="-258.82135"
       y="794.63385"
       ry="12.368584"
       rx="54.799999"
       transform="matrix(0.93969262,-0.34202014,0.34202014,0.93969262,0,0)" />
    <rect
       style="fill:#ff0000;fill-opacity:1;stroke:#000000;stroke-opacity:1"
       id="rect2816-7-0"
       width="130.50093"
       height="32.764374"
       x="-80.230682"
       y="744.1391"
       transform="matrix(0.93969262,-0.34202014,0.34202014,0.93969262,0,0)" />
    <rect
       style="fill:#0000ff;fill-opacity:1;stroke:#ff0000;stroke-opacity:1"
       id="rect2818-6-9"
       width="128.63327"
       height="35.868893"
       x="-98.794472"
       y="794.87231"
       ry="12.368584"
       transform="matrix(0.93969262,-0.34202014,0.34202014,0.93969262,0,0)" />
    <rect
       style="fill:#00ff00;fill-opacity:1;stroke:#ff0000;stroke-opacity:1"
       id="rect2818-9-1-4"
       width="128.63327"
       height="35.868893"
       x="-117.40781"
       y="846.01202"
       ry="12.368584"
       rx="54.799999"
       transform="matrix(0.93969262,-0.34202014,0.34202014,0.93969262,0,0)" />
    <rect
       style="fill:#ff0000;fill-opacity:1;stroke:#000000;stroke-width:2;stroke-miterlimit:4;stroke-opacity:1;stroke-dasharray:none"
       id="rect2816-7-4-8"
       width="130.50093"
       height="32.764374"
       x="54.961887"
       y="794.00323"
       transform="matrix(0.93969262,-0.34202014,0.34202014,0.93969262,0,0)" />
    <rect
       style="fill:#0000ff;fill-opacity:1;stroke:#ff0000;stroke-width:2;stroke-miterlimit:4;stroke-opacity:1;stroke-dasharray:none"
       id="rect2818-6-2-8"
       width="128.63327"
       height="35.868893"
       x="36.398102"
       y="844.73645"
       ry="12.368584"
       transform="matrix(0.93969262,-0.34202014,0.34202014,0.93969262,0,0)" />
    <rect
       style="fill:#00ff00;fill-opacity:1;stroke:#ffff00;stroke-width:2;stroke-miterlimit:4;stroke-opacity:1;stroke-dasharray:none"
       id="rect2818-9-1-3-2"
       width="128.63327"
       height="35.868893"
       x="17.784744"
       y="895.87628"
       ry="12.368584"
       rx="54.799999"
       transform="matrix(0.93969262,-0.34202014,0.34202014,0.93969262,0,0)" />
    <path
       transform="matrix(0.93969262,-0.34202014,0.34202014,0.93969262,-78.528002,712.84506)"
       sodipodi:type="arc"
       style="fill:#ff0000;fill-opacity:1;stroke:none"
       id="path3672-4"
       sodipodi:cx="86.270874"
       sodipodi:cy="249.9503"
       sodipodi:rx="47.309834"
       sodipodi:ry="47.309834"
       d="m 133.58071,249.9503 a 47.309834,47.309834 0 1 1 -94.61967,0 47.309834,47.309834 0 1 1 94.61967,0 z" />
    <path
       transform="matrix(0.93969262,-0.34202014,0.34202014,0.93969262,-78.837217,784.89207)"
       sodipodi:type="arc"
       style="fill:#0000ff;fill-opacity:1;stroke:none"
       id="path3672-2-55"
       sodipodi:cx="86.270874"
       sodipodi:cy="249.9503"
       sodipodi:rx="47.309834"
       sodipodi:ry="13.296228"
       d="m 133.58071,249.9503 a 47.309834,13.296228 0 1 1 -94.61967,0 47.309834,13.296228 0 1 1 94.61967,0 z" />
    <path
       transform="matrix(0.93969262,-0.34202014,0.34202014,0.93969262,79.016822,712.07202)"
       sodipodi:type="arc"
       style="fill:#ff0000;fill-opacity:1;stroke:#000000;stroke-width:1;stroke-miterlimit:4;stroke-opacity:1;stroke-dasharray:none"
       id="path3672-5-1"
       sodipodi:cx="86.270874"
       sodipodi:cy="249.9503"
       sodipodi:rx="47.309834"
       sodipodi:ry="47.309834"
       d="m 133.58071,249.9503 a 47.309834,47.309834 0 1 1 -94.61967,0 47.309834,47.309834 0 1 1 94.61967,0 z" />
    <path
       transform="matrix(0.93969262,-0.34202014,0.34202014,0.93969262,78.707612,784.11903)"
       sodipodi:type="arc"
       style="fill:#0000ff;fill-opacity:1;stroke:#000000;stroke-width:1;stroke-miterlimit:4;stroke-opacity:1;stroke-dasharray:none"
       id="path3672-2-4-7"
       sodipodi:cx="86.270874"
       sodipodi:cy="249.9503"
       sodipodi:rx="47.309834"
       sodipodi:ry="13.296228"
       d="m 133.58071,249.9503 a 47.309834,13.296228 0 1 1 -94.61967,0 47.309834,13.296228 0 1 1 94.61967,0 z" />
    <path
       transform="matrix(0.93969262,-0.34202014,0.34202014,0.93969262,227.43983,710.83517)"
       sodipodi:type="arc"
       style="fill:#ff0000;fill-opacity:1;stroke:#0000ff;stroke-width:2;stroke-miterlimit:4;stroke-opacity:1;stroke-dasharray:none"
       id="path3672-5-2-1"
       sodipodi:cx="86.270874"
       sodipodi:cy="249.9503"
       sodipodi:rx="47.309834"
       sodipodi:ry="47.309834"
       d="m 133.58071,249.9503 a 47.309834,47.309834 0 1 1 -94.61967,0 47.309834,47.309834 0 1 1 94.61967,0 z" />
    <path
       transform="matrix(0.93969262,-0.34202014,0.34202014,0.93969262,227.13062,782.88218)"
       sodipodi:type="arc"
       style="fill:#0000ff;fill-opacity:1;stroke:#ff0000;stroke-width:2;stroke-miterlimit:4;stroke-opacity:1;stroke-dasharray:none"
       id="path3672-2-4-3-15"
       sodipodi:cx="86.270874"
       sodipodi:cy="249.9503"
       sodipodi:rx="47.309834"
       sodipodi:ry="13.296228"
       d="m 133.58071,249.9503 a 47.309834,13.296228 0 1 1 -94.61967,0 47.309834,13.296228 0 1 1 94.61967,0 z" />
    <path
       transform="matrix(0.93969262,-0.34202014,0.34202014,0.93969262,-52.737152,853.54638)"
       sodipodi:type="arc"
       style="fill:#ff0000;fill-opacity:1;stroke:none"
       id="path3790-2"
       sodipodi:cx="498.14471"
       sodipodi:cy="247.16737"
       sodipodi:rx="17.006804"
       sodipodi:ry="44.526901"
       d="m 515.15152,247.16737 a 17.006804,44.526901 0 1 1 -34.01361,0 17.006804,44.526901 0 1 1 34.01361,0 z" />
    <path
       transform="matrix(0.93969262,-0.34202014,0.34202014,0.93969262,23.020422,856.0201)"
       sodipodi:type="arc"
       style="fill:#ff0000;fill-opacity:1;stroke:#0000ff;stroke-width:1;stroke-miterlimit:4;stroke-opacity:1;stroke-dasharray:none;stroke-dashoffset:0"
       id="path3790-4-7"
       sodipodi:cx="498.14471"
       sodipodi:cy="247.16737"
       sodipodi:rx="17.006804"
       sodipodi:ry="44.526901"
       d="m 515.15152,247.16737 a 17.006804,44.526901 0 1 1 -34.01361,0 17.006804,44.526901 0 1 1 34.01361,0 z" />
    <path
       transform="matrix(0.93969262,-0.34202014,0.34202014,0.93969262,89.192342,855.40167)"
       sodipodi:type="arc"
       style="fill:#ff0000;fill-opacity:1;stroke:#0000ff;stroke-width:2;stroke-miterlimit:4;stroke-opacity:1;stroke-dasharray:none;stroke-dashoffset:0"
       id="path3790-1-61"
       sodipodi:cx="498.14471"
       sodipodi:cy="247.16737"
       sodipodi:rx="17.006804"
       sodipodi:ry="44.526901"
       d="m 515.15152,247.16737 a 17.006804,44.526901 0 1 1 -34.01361,0 17.006804,44.526901 0 1 1 34.01361,0 z" />
  </g>
</svg>
