<?xml version="1.0" encoding="UTF-8" standalone="no"?>
<!-- Created with Inkscape (http://www.inkscape.org/) -->

<svg
   xmlns:dc="http://purl.org/dc/elements/1.1/"
   xmlns:cc="http://creativecommons.org/ns#"
   xmlns:rdf="http://www.w3.org/1999/02/22-rdf-syntax-ns#"
   xmlns:svg="http://www.w3.org/2000/svg"
   xmlns="http://www.w3.org/2000/svg"
   xmlns:sodipodi="http://sodipodi.sourceforge.net/DTD/sodipodi-0.dtd"
   xmlns:inkscape="http://www.inkscape.org/namespaces/inkscape"
   width="210mm"
   height="297mm"
   id="svg2964"
   version="1.1"
   inkscape:version="0.47 r22583"
   sodipodi:docname="新規ドキュメント 3">
  <defs
     id="defs2966">
    <inkscape:perspective
       sodipodi:type="inkscape:persp3d"
       inkscape:vp_x="0 : 526.18109 : 1"
       inkscape:vp_y="0 : 1000 : 0"
       inkscape:vp_z="744.09448 : 526.18109 : 1"
       inkscape:persp3d-origin="372.04724 : 350.78739 : 1"
       id="perspective2972" />
    <inkscape:perspective
       id="perspective2942"
       inkscape:persp3d-origin="0.5 : 0.33333333 : 1"
       inkscape:vp_z="1 : 0.5 : 1"
       inkscape:vp_y="0 : 1000 : 0"
       inkscape:vp_x="0 : 0.5 : 1"
       sodipodi:type="inkscape:persp3d" />
    <inkscape:perspective
       id="perspective2942-3"
       inkscape:persp3d-origin="0.5 : 0.33333333 : 1"
       inkscape:vp_z="1 : 0.5 : 1"
       inkscape:vp_y="0 : 1000 : 0"
       inkscape:vp_x="0 : 0.5 : 1"
       sodipodi:type="inkscape:persp3d" />
    <inkscape:perspective
       id="perspective2942-33"
       inkscape:persp3d-origin="0.5 : 0.33333333 : 1"
       inkscape:vp_z="1 : 0.5 : 1"
       inkscape:vp_y="0 : 1000 : 0"
       inkscape:vp_x="0 : 0.5 : 1"
       sodipodi:type="inkscape:persp3d" />
  </defs>
  <sodipodi:namedview
     id="base"
     pagecolor="#ffffff"
     bordercolor="#666666"
     borderopacity="1.0"
     inkscape:pageopacity="0.0"
     inkscape:pageshadow="2"
     inkscape:zoom="0.49497475"
     inkscape:cx="366.08826"
     inkscape:cy="192.24804"
     inkscape:document-units="px"
     inkscape:current-layer="layer1"
     showgrid="false"
     inkscape:window-width="1024"
     inkscape:window-height="712"
     inkscape:window-x="-4"
     inkscape:window-y="-4"
     inkscape:window-maximized="1" />
  <metadata
     id="metadata2969">
    <rdf:RDF>
      <cc:Work
         rdf:about="">
        <dc:format>image/svg+xml</dc:format>
        <dc:type
           rdf:resource="http://purl.org/dc/dcmitype/StillImage" />
        <dc:title></dc:title>
      </cc:Work>
    </rdf:RDF>
  </metadata>
  <g
     inkscape:label="レイヤー 1"
     inkscape:groupmode="layer"
     id="layer1">
    <rect
       style="fill:#ff0000;fill-opacity:1;stroke:none"
       id="rect2816"
       width="130.50093"
       height="37.832996"
       x="7.4402485"
       y="62.407963"
       transform="matrix(1,0,0.49999826,0.86602641,0,0)" />
    <rect
       style="fill:#0000ff;fill-opacity:1;stroke:none"
       id="rect2818"
       width="128.63327"
       height="41.417782"
       x="-24.281504"
       y="125.0488"
       ry="14.281994"
       transform="matrix(1,0,0.49999826,0.86602641,0,0)" />
    <rect
       style="fill:#00ff00;fill-opacity:1;stroke:none"
       id="rect2818-9"
       width="128.63327"
       height="41.417782"
       x="-55.701778"
       y="187.88957"
       ry="14.281994"
       rx="54.799999"
       transform="matrix(1,0,0.49999826,0.86602641,0,0)" />
    <rect
       style="fill:#ff0000;fill-opacity:1;stroke:#000000;stroke-width:1.07456934;stroke-opacity:1"
       id="rect2816-7"
       width="130.50093"
       height="37.832996"
       x="157.94789"
       y="62.307972"
       transform="matrix(1,0,0.49999826,0.86602641,0,0)" />
    <rect
       style="fill:#0000ff;fill-opacity:1;stroke:#ff0000;stroke-width:1.07456934;stroke-opacity:1"
       id="rect2818-6"
       width="128.63327"
       height="41.417782"
       x="126.22614"
       y="124.94882"
       ry="14.281994"
       transform="matrix(1,0,0.49999826,0.86602641,0,0)" />
    <rect
       style="fill:#00ff00;fill-opacity:1;stroke:#ff0000;stroke-width:1.07456934;stroke-opacity:1"
       id="rect2818-9-1"
       width="128.63327"
       height="41.417782"
       x="94.80587"
       y="187.78957"
       ry="14.281994"
       rx="54.799999"
       transform="matrix(1,0,0.49999826,0.86602641,0,0)" />
    <rect
       style="fill:#ff0000;fill-opacity:1;stroke:#000000;stroke-width:2.14913869;stroke-miterlimit:4;stroke-opacity:1;stroke-dasharray:none"
       id="rect2816-7-4"
       width="130.50093"
       height="37.832996"
       x="301.68484"
       y="63.022064"
       transform="matrix(1,0,0.49999826,0.86602641,0,0)" />
    <rect
       style="fill:#0000ff;fill-opacity:1;stroke:#ff0000;stroke-width:2.14913869;stroke-miterlimit:4;stroke-opacity:1;stroke-dasharray:none"
       id="rect2818-6-2"
       width="128.63327"
       height="41.417782"
       x="269.9631"
       y="125.66289"
       ry="14.281994"
       transform="matrix(1,0,0.49999826,0.86602641,0,0)" />
    <rect
       style="fill:#00ff00;fill-opacity:1;stroke:#ffff00;stroke-width:2.14913869;stroke-miterlimit:4;stroke-opacity:1;stroke-dasharray:none"
       id="rect2818-9-1-3"
       width="128.63327"
       height="41.417782"
       x="238.5428"
       y="188.50371"
       ry="14.281994"
       rx="54.799999"
       transform="matrix(1,0,0.49999826,0.86602641,0,0)" />
    <path
       transform="matrix(1,0,0.57734758,1,-124.77728,18.827616)"
       sodipodi:type="arc"
       style="fill:#ff0000;fill-opacity:1;stroke:none"
       id="path3672"
       sodipodi:cx="86.270874"
       sodipodi:cy="249.9503"
       sodipodi:rx="47.309834"
       sodipodi:ry="47.309834"
       d="m 133.58071,249.9503 a 47.309834,47.309834 0 1 1 -94.61967,0 47.309834,47.309834 0 1 1 94.61967,0 z" />
    <path
       transform="matrix(1,0,0.57734758,1,-125.0865,90.874626)"
       sodipodi:type="arc"
       style="fill:#0000ff;fill-opacity:1;stroke:none"
       id="path3672-2"
       sodipodi:cx="86.270874"
       sodipodi:cy="249.9503"
       sodipodi:rx="47.309834"
       sodipodi:ry="13.296228"
       d="m 133.58071,249.9503 a 47.309834,13.296228 0 1 1 -94.61967,0 47.309834,13.296228 0 1 1 94.61967,0 z" />
    <path
       transform="matrix(1,0,0.57734758,1,32.767547,18.054576)"
       sodipodi:type="arc"
       style="fill:#ff0000;fill-opacity:1;stroke:#000000;stroke-width:1;stroke-miterlimit:4;stroke-opacity:1;stroke-dasharray:none"
       id="path3672-5"
       sodipodi:cx="86.270874"
       sodipodi:cy="249.9503"
       sodipodi:rx="47.309834"
       sodipodi:ry="47.309834"
       d="m 133.58071,249.9503 a 47.309834,47.309834 0 1 1 -94.61967,0 47.309834,47.309834 0 1 1 94.61967,0 z" />
    <path
       transform="matrix(1,0,0.57734758,1,32.458337,90.101586)"
       sodipodi:type="arc"
       style="fill:#0000ff;fill-opacity:1;stroke:#000000;stroke-width:1;stroke-miterlimit:4;stroke-opacity:1;stroke-dasharray:none"
       id="path3672-2-4"
       sodipodi:cx="86.270874"
       sodipodi:cy="249.9503"
       sodipodi:rx="47.309834"
       sodipodi:ry="13.296228"
       d="m 133.58071,249.9503 a 47.309834,13.296228 0 1 1 -94.61967,0 47.309834,13.296228 0 1 1 94.61967,0 z" />
    <path
       transform="matrix(1,0,0.57734758,1,181.19056,16.817716)"
       sodipodi:type="arc"
       style="fill:#ff0000;fill-opacity:1;stroke:#0000ff;stroke-width:2;stroke-miterlimit:4;stroke-opacity:1;stroke-dasharray:none"
       id="path3672-5-2"
       sodipodi:cx="86.270874"
       sodipodi:cy="249.9503"
       sodipodi:rx="47.309834"
       sodipodi:ry="47.309834"
       d="m 133.58071,249.9503 a 47.309834,47.309834 0 1 1 -94.61967,0 47.309834,47.309834 0 1 1 94.61967,0 z" />
    <path
       transform="matrix(1,0,0.57734758,1,180.88135,88.864726)"
       sodipodi:type="arc"
       style="fill:#0000ff;fill-opacity:1;stroke:#ff0000;stroke-width:2;stroke-miterlimit:4;stroke-opacity:1;stroke-dasharray:none"
       id="path3672-2-4-3"
       sodipodi:cx="86.270874"
       sodipodi:cy="249.9503"
       sodipodi:rx="47.309834"
       sodipodi:ry="13.296228"
       d="m 133.58071,249.9503 a 47.309834,13.296228 0 1 1 -94.61967,0 47.309834,13.296228 0 1 1 94.61967,0 z" />
    <path
       transform="matrix(1,0,0.57734758,1,-123.17056,18.827616)"
       sodipodi:type="arc"
       style="fill:#ff0000;fill-opacity:1;stroke:none"
       id="path3790"
       sodipodi:cx="498.14471"
       sodipodi:cy="247.16737"
       sodipodi:rx="17.006804"
       sodipodi:ry="44.526901"
       d="m 515.15152,247.16737 a 17.006804,44.526901 0 1 1 -34.01361,0 17.006804,44.526901 0 1 1 34.01361,0 z" />
    <path
       transform="matrix(1,0,0.57734758,1,-47.412995,21.301336)"
       sodipodi:type="arc"
       style="fill:#ff0000;fill-opacity:1;stroke:#0000ff;stroke-width:1;stroke-miterlimit:4;stroke-opacity:1;stroke-dasharray:none;stroke-dashoffset:0"
       id="path3790-4"
       sodipodi:cx="498.14471"
       sodipodi:cy="247.16737"
       sodipodi:rx="17.006804"
       sodipodi:ry="44.526901"
       d="m 515.15152,247.16737 a 17.006804,44.526901 0 1 1 -34.01361,0 17.006804,44.526901 0 1 1 34.01361,0 z" />
    <path
       transform="matrix(1,0,0.57734758,1,18.758934,20.682906)"
       sodipodi:type="arc"
       style="fill:#ff0000;fill-opacity:1;stroke:#0000ff;stroke-width:2;stroke-miterlimit:4;stroke-opacity:1;stroke-dasharray:none;stroke-dashoffset:0"
       id="path3790-1"
       sodipodi:cx="498.14471"
       sodipodi:cy="247.16737"
       sodipodi:rx="17.006804"
       sodipodi:ry="44.526901"
       d="m 515.15152,247.16737 a 17.006804,44.526901 0 1 1 -34.01361,0 17.006804,44.526901 0 1 1 34.01361,0 z" />
    <rect
       style="fill:#ff0000;fill-opacity:1;stroke:none"
       id="rect2816-2"
       width="150.68932"
       height="32.764374"
       x="47.133556"
       y="444.63882"
       transform="matrix(0.86602641,-0.49999826,0,1,0,0)" />
    <rect
       style="fill:#0000ff;fill-opacity:1;stroke:none"
       id="rect2818-2"
       width="148.53273"
       height="35.868893"
       x="47.704838"
       y="498.63391"
       ry="12.368584"
       transform="matrix(0.86602641,-0.49999826,0,1,0,0)" />
    <rect
       style="fill:#00ff00;fill-opacity:1;stroke:none"
       id="rect2818-9-16"
       width="148.53273"
       height="35.868893"
       x="47.704838"
       y="553.05573"
       ry="12.368584"
       rx="63.277515"
       transform="matrix(0.86602641,-0.49999826,0,1,0,0)" />
    <rect
       style="fill:#ff0000;fill-opacity:1;stroke:#000000;stroke-width:1.07456934;stroke-opacity:1"
       id="rect2816-7-8"
       width="150.68932"
       height="32.764374"
       x="220.86684"
       y="531.41858"
       transform="matrix(0.86602641,-0.49999826,0,1,0,0)" />
    <rect
       style="fill:#0000ff;fill-opacity:1;stroke:#ff0000;stroke-width:1.07456934;stroke-opacity:1"
       id="rect2818-6-5"
       width="148.53273"
       height="35.868893"
       x="221.43813"
       y="585.4137"
       ry="12.368584"
       transform="matrix(0.86602641,-0.49999826,0,1,0,0)" />
    <rect
       style="fill:#00ff00;fill-opacity:1;stroke:#ff0000;stroke-width:1.07456934;stroke-opacity:1"
       id="rect2818-9-1-7"
       width="148.53273"
       height="35.868893"
       x="221.43813"
       y="639.83545"
       ry="12.368584"
       rx="63.277515"
       transform="matrix(0.86602641,-0.49999826,0,1,0,0)" />
    <rect
       style="fill:#ff0000;fill-opacity:1;stroke:#000000;stroke-width:2.14913869;stroke-miterlimit:4;stroke-opacity:1;stroke-dasharray:none"
       id="rect2816-7-4-6"
       width="150.68932"
       height="32.764374"
       x="387.25211"
       y="615.22937"
       transform="matrix(0.86602641,-0.49999826,0,1,0,0)" />
    <rect
       style="fill:#0000ff;fill-opacity:1;stroke:#ff0000;stroke-width:2.14913869;stroke-miterlimit:4;stroke-opacity:1;stroke-dasharray:none"
       id="rect2818-6-2-1"
       width="148.53273"
       height="35.868893"
       x="387.82339"
       y="669.22449"
       ry="12.368584"
       transform="matrix(0.86602641,-0.49999826,0,1,0,0)" />
    <rect
       style="fill:#00ff00;fill-opacity:1;stroke:#ffff00;stroke-width:2.14913869;stroke-miterlimit:4;stroke-opacity:1;stroke-dasharray:none"
       id="rect2818-9-1-3-8"
       width="148.53273"
       height="35.868893"
       x="387.82339"
       y="723.6463"
       ry="12.368584"
       rx="63.277515"
       transform="matrix(0.86602641,-0.49999826,0,1,0,0)" />
    <path
       transform="matrix(1,-0.57734758,0,1,12.247474,397.98891)"
       sodipodi:type="arc"
       style="fill:#ff0000;fill-opacity:1;stroke:none"
       id="path3672-9"
       sodipodi:cx="86.270874"
       sodipodi:cy="249.9503"
       sodipodi:rx="47.309834"
       sodipodi:ry="47.309834"
       d="m 133.58071,249.9503 a 47.309834,47.309834 0 1 1 -94.61967,0 47.309834,47.309834 0 1 1 94.61967,0 z" />
    <path
       transform="matrix(1,-0.57734758,0,1,11.938259,470.03592)"
       sodipodi:type="arc"
       style="fill:#0000ff;fill-opacity:1;stroke:none"
       id="path3672-2-2"
       sodipodi:cx="86.270874"
       sodipodi:cy="249.9503"
       sodipodi:rx="47.309834"
       sodipodi:ry="13.296228"
       d="m 133.58071,249.9503 a 47.309834,13.296228 0 1 1 -94.61967,0 47.309834,13.296228 0 1 1 94.61967,0 z" />
    <path
       transform="matrix(1,-0.57734758,0,1,169.7923,397.21588)"
       sodipodi:type="arc"
       style="fill:#ff0000;fill-opacity:1;stroke:#000000;stroke-width:1;stroke-miterlimit:4;stroke-opacity:1;stroke-dasharray:none"
       id="path3672-5-7"
       sodipodi:cx="86.270874"
       sodipodi:cy="249.9503"
       sodipodi:rx="47.309834"
       sodipodi:ry="47.309834"
       d="m 133.58071,249.9503 a 47.309834,47.309834 0 1 1 -94.61967,0 47.309834,47.309834 0 1 1 94.61967,0 z" />
    <path
       transform="matrix(1,-0.57734758,0,1,169.48309,469.26289)"
       sodipodi:type="arc"
       style="fill:#0000ff;fill-opacity:1;stroke:#000000;stroke-width:1;stroke-miterlimit:4;stroke-opacity:1;stroke-dasharray:none"
       id="path3672-2-4-9"
       sodipodi:cx="86.270874"
       sodipodi:cy="249.9503"
       sodipodi:rx="47.309834"
       sodipodi:ry="13.296228"
       d="m 133.58071,249.9503 a 47.309834,13.296228 0 1 1 -94.61967,0 47.309834,13.296228 0 1 1 94.61967,0 z" />
    <path
       transform="matrix(1,-0.57734758,0,1,318.21531,395.97902)"
       sodipodi:type="arc"
       style="fill:#ff0000;fill-opacity:1;stroke:#0000ff;stroke-width:2;stroke-miterlimit:4;stroke-opacity:1;stroke-dasharray:none"
       id="path3672-5-2-5"
       sodipodi:cx="86.270874"
       sodipodi:cy="249.9503"
       sodipodi:rx="47.309834"
       sodipodi:ry="47.309834"
       d="m 133.58071,249.9503 a 47.309834,47.309834 0 1 1 -94.61967,0 47.309834,47.309834 0 1 1 94.61967,0 z" />
    <path
       transform="matrix(1,-0.57734758,0,1,317.9061,468.02603)"
       sodipodi:type="arc"
       style="fill:#0000ff;fill-opacity:1;stroke:#ff0000;stroke-width:2;stroke-miterlimit:4;stroke-opacity:1;stroke-dasharray:none"
       id="path3672-2-4-3-4"
       sodipodi:cx="86.270874"
       sodipodi:cy="249.9503"
       sodipodi:rx="47.309834"
       sodipodi:ry="13.296228"
       d="m 133.58071,249.9503 a 47.309834,13.296228 0 1 1 -94.61967,0 47.309834,13.296228 0 1 1 94.61967,0 z" />
    <path
       transform="matrix(1,-0.57734758,0,1,12.247474,635.78328)"
       sodipodi:type="arc"
       style="fill:#ff0000;fill-opacity:1;stroke:none"
       id="path3790-3"
       sodipodi:cx="498.14471"
       sodipodi:cy="247.16737"
       sodipodi:rx="17.006804"
       sodipodi:ry="44.526901"
       d="m 515.15152,247.16737 a 17.006804,44.526901 0 1 1 -34.01361,0 17.006804,44.526901 0 1 1 34.01361,0 z" />
    <path
       transform="matrix(1,-0.57734758,0,1,88.005044,638.257)"
       sodipodi:type="arc"
       style="fill:#ff0000;fill-opacity:1;stroke:#0000ff;stroke-width:1;stroke-miterlimit:4;stroke-opacity:1;stroke-dasharray:none;stroke-dashoffset:0"
       id="path3790-4-1"
       sodipodi:cx="498.14471"
       sodipodi:cy="247.16737"
       sodipodi:rx="17.006804"
       sodipodi:ry="44.526901"
       d="m 515.15152,247.16737 a 17.006804,44.526901 0 1 1 -34.01361,0 17.006804,44.526901 0 1 1 34.01361,0 z" />
    <path
       transform="matrix(1,-0.57734758,0,1,154.17697,637.63857)"
       sodipodi:type="arc"
       style="fill:#ff0000;fill-opacity:1;stroke:#0000ff;stroke-width:2;stroke-miterlimit:4;stroke-opacity:1;stroke-dasharray:none;stroke-dashoffset:0"
       id="path3790-1-2"
       sodipodi:cx="498.14471"
       sodipodi:cy="247.16737"
       sodipodi:rx="17.006804"
       sodipodi:ry="44.526901"
       d="m 515.15152,247.16737 a 17.006804,44.526901 0 1 1 -34.01361,0 17.006804,44.526901 0 1 1 34.01361,0 z" />
    <rect
       style="fill:#ff0000;fill-opacity:1;stroke:none"
       id="rect2816-4"
       width="133.08536"
       height="34.207012"
       x="377.25653"
       y="868.07391"
       transform="matrix(0.98058067,-0.19611614,-0.28734789,0.95782628,0,0)" />
    <rect
       style="fill:#0000ff;fill-opacity:1;stroke:none"
       id="rect2818-1"
       width="131.18071"
       height="37.448223"
       x="377.76108"
       y="924.71106"
       ry="12.91318"
       transform="matrix(0.98058067,-0.19611614,-0.28734789,0.95782628,0,0)" />
    <rect
       style="fill:#00ff00;fill-opacity:1;stroke:none"
       id="rect2818-9-13"
       width="131.18071"
       height="37.448223"
       x="377.76108"
       y="981.52911"
       ry="12.91318"
       rx="55.885254"
       transform="matrix(0.98058067,-0.19611614,-0.28734789,0.95782628,0,0)" />
    <rect
       style="fill:#ff0000;fill-opacity:1;stroke:#000000;stroke-width:1.03184617;stroke-opacity:1"
       id="rect2816-7-87"
       width="133.08536"
       height="34.207012"
       x="530.69385"
       y="867.98346"
       transform="matrix(0.98058067,-0.19611614,-0.28734789,0.95782628,0,0)" />
    <rect
       style="fill:#0000ff;fill-opacity:1;stroke:#ff0000;stroke-width:1.03184617;stroke-opacity:1"
       id="rect2818-6-4"
       width="131.18071"
       height="37.448223"
       x="531.19836"
       y="924.62073"
       ry="12.91318"
       transform="matrix(0.98058067,-0.19611614,-0.28734789,0.95782628,0,0)" />
    <rect
       style="fill:#00ff00;fill-opacity:1;stroke:#ff0000;stroke-width:1.03184617;stroke-opacity:1"
       id="rect2818-9-1-2"
       width="131.18071"
       height="37.448223"
       x="531.19836"
       y="981.43872"
       ry="12.91318"
       rx="55.885254"
       transform="matrix(0.98058067,-0.19611614,-0.28734789,0.95782628,0,0)" />
    <rect
       style="fill:#ff0000;fill-opacity:1;stroke:#000000;stroke-width:2.06369233;stroke-miterlimit:4;stroke-opacity:1;stroke-dasharray:none"
       id="rect2816-7-4-7"
       width="133.08536"
       height="34.207012"
       x="677.64148"
       y="868.62915"
       transform="matrix(0.98058067,-0.19611614,-0.28734789,0.95782628,0,0)" />
    <rect
       style="fill:#0000ff;fill-opacity:1;stroke:#ff0000;stroke-width:2.06369233;stroke-miterlimit:4;stroke-opacity:1;stroke-dasharray:none"
       id="rect2818-6-2-7"
       width="131.18071"
       height="37.448223"
       x="678.146"
       y="925.26636"
       ry="12.91318"
       transform="matrix(0.98058067,-0.19611614,-0.28734789,0.95782628,0,0)" />
    <rect
       style="fill:#00ff00;fill-opacity:1;stroke:#ffff00;stroke-width:2.06369233;stroke-miterlimit:4;stroke-opacity:1;stroke-dasharray:none"
       id="rect2818-9-1-3-9"
       width="131.18071"
       height="37.448223"
       x="678.146"
       y="982.08441"
       ry="12.91318"
       rx="55.885254"
       transform="matrix(0.98058067,-0.19611614,-0.28734789,0.95782628,0,0)" />
    <path
       transform="matrix(1,-0.2,-0.3,1,102.48565,727.97287)"
       sodipodi:type="arc"
       style="fill:#ff0000;fill-opacity:1;stroke:none"
       id="path3672-3"
       sodipodi:cx="86.270874"
       sodipodi:cy="249.9503"
       sodipodi:rx="47.309834"
       sodipodi:ry="47.309834"
       d="m 133.58071,249.9503 a 47.309834,47.309834 0 1 1 -94.61967,0 47.309834,47.309834 0 1 1 94.61967,0 z" />
    <path
       transform="matrix(1,-0.2,-0.3,1,80.562343,800.08171)"
       sodipodi:type="arc"
       style="fill:#0000ff;fill-opacity:1;stroke:none"
       id="path3672-2-1"
       sodipodi:cx="86.270874"
       sodipodi:cy="249.9503"
       sodipodi:rx="47.309834"
       sodipodi:ry="13.296228"
       d="m 133.58071,249.9503 a 47.309834,13.296228 0 1 1 -94.61967,0 47.309834,13.296228 0 1 1 94.61967,0 z" />
    <path
       transform="matrix(1,-0.2,-0.3,1,260.2624,695.69086)"
       sodipodi:type="arc"
       style="fill:#ff0000;fill-opacity:1;stroke:#000000;stroke-width:1;stroke-miterlimit:4;stroke-opacity:1;stroke-dasharray:none"
       id="path3672-5-9"
       sodipodi:cx="86.270874"
       sodipodi:cy="249.9503"
       sodipodi:rx="47.309834"
       sodipodi:ry="47.309834"
       d="m 133.58071,249.9503 a 47.309834,47.309834 0 1 1 -94.61967,0 47.309834,47.309834 0 1 1 94.61967,0 z" />
    <path
       transform="matrix(1,-0.2,-0.3,1,238.33909,767.79971)"
       sodipodi:type="arc"
       style="fill:#0000ff;fill-opacity:1;stroke:#000000;stroke-width:1;stroke-miterlimit:4;stroke-opacity:1;stroke-dasharray:none"
       id="path3672-2-4-8"
       sodipodi:cx="86.270874"
       sodipodi:cy="249.9503"
       sodipodi:rx="47.309834"
       sodipodi:ry="13.296228"
       d="m 133.58071,249.9503 a 47.309834,13.296228 0 1 1 -94.61967,0 47.309834,13.296228 0 1 1 94.61967,0 z" />
    <path
       transform="matrix(1,-0.2,-0.3,1,409.05647,664.7694)"
       sodipodi:type="arc"
       style="fill:#ff0000;fill-opacity:1;stroke:#0000ff;stroke-width:2;stroke-miterlimit:4;stroke-opacity:1;stroke-dasharray:none"
       id="path3672-5-2-6"
       sodipodi:cx="86.270874"
       sodipodi:cy="249.9503"
       sodipodi:rx="47.309834"
       sodipodi:ry="47.309834"
       d="m 133.58071,249.9503 a 47.309834,47.309834 0 1 1 -94.61967,0 47.309834,47.309834 0 1 1 94.61967,0 z" />
    <path
       transform="matrix(1,-0.2,-0.3,1,387.13316,736.87825)"
       sodipodi:type="arc"
       style="fill:#0000ff;fill-opacity:1;stroke:#ff0000;stroke-width:2;stroke-miterlimit:4;stroke-opacity:1;stroke-dasharray:none"
       id="path3672-2-4-3-5"
       sodipodi:cx="86.270874"
       sodipodi:cy="249.9503"
       sodipodi:rx="47.309834"
       sodipodi:ry="13.296228"
       d="m 133.58071,249.9503 a 47.309834,13.296228 0 1 1 -94.61967,0 47.309834,13.296228 0 1 1 94.61967,0 z" />
    <path
       transform="matrix(1,-0.2,-0.3,1,102.48565,727.97287)"
       sodipodi:type="arc"
       style="fill:#ff0000;fill-opacity:1;stroke:none"
       id="path3790-0"
       sodipodi:cx="498.14471"
       sodipodi:cy="247.16737"
       sodipodi:rx="17.006804"
       sodipodi:ry="44.526901"
       d="m 515.15152,247.16737 a 17.006804,44.526901 0 1 1 -34.01361,0 17.006804,44.526901 0 1 1 34.01361,0 z" />
    <path
       transform="matrix(1,-0.2,-0.3,1,177.50112,715.29507)"
       sodipodi:type="arc"
       style="fill:#ff0000;fill-opacity:1;stroke:#0000ff;stroke-width:1;stroke-miterlimit:4;stroke-opacity:1;stroke-dasharray:none;stroke-dashoffset:0"
       id="path3790-4-2"
       sodipodi:cx="498.14471"
       sodipodi:cy="247.16737"
       sodipodi:rx="17.006804"
       sodipodi:ry="44.526901"
       d="m 515.15152,247.16737 a 17.006804,44.526901 0 1 1 -34.01361,0 17.006804,44.526901 0 1 1 34.01361,0 z" />
    <path
       transform="matrix(1,-0.2,-0.3,1,243.85857,701.44226)"
       sodipodi:type="arc"
       style="fill:#ff0000;fill-opacity:1;stroke:#0000ff;stroke-width:2;stroke-miterlimit:4;stroke-opacity:1;stroke-dasharray:none;stroke-dashoffset:0"
       id="path3790-1-8"
       sodipodi:cx="498.14471"
       sodipodi:cy="247.16737"
       sodipodi:rx="17.006804"
       sodipodi:ry="44.526901"
       d="m 515.15152,247.16737 a 17.006804,44.526901 0 1 1 -34.01361,0 17.006804,44.526901 0 1 1 34.01361,0 z" />
  </g>
</svg>
