<?xml version="1.0" encoding="UTF-8" standalone="no"?>
<!-- Created with Inkscape (http://www.inkscape.org/) -->

<svg
   xmlns:dc="http://purl.org/dc/elements/1.1/"
   xmlns:cc="http://creativecommons.org/ns#"
   xmlns:rdf="http://www.w3.org/1999/02/22-rdf-syntax-ns#"
   xmlns:svg="http://www.w3.org/2000/svg"
   xmlns="http://www.w3.org/2000/svg"
   xmlns:sodipodi="http://sodipodi.sourceforge.net/DTD/sodipodi-0.dtd"
   xmlns:inkscape="http://www.inkscape.org/namespaces/inkscape"
   width="600"
   height="400"
   id="svg2"
   version="1.1"
   inkscape:version="0.47 r22583"
   sodipodi:docname="ellipse-rotate.svg">
  <defs
     id="defs4">
    <inkscape:perspective
       sodipodi:type="inkscape:persp3d"
       inkscape:vp_x="0 : 526.18109 : 1"
       inkscape:vp_y="0 : 1000 : 0"
       inkscape:vp_z="744.09448 : 526.18109 : 1"
       inkscape:persp3d-origin="372.04724 : 350.78739 : 1"
       id="perspective10" />
  </defs>
  <sodipodi:namedview
     id="base"
     pagecolor="#ffffff"
     bordercolor="#666666"
     borderopacity="1.0"
     inkscape:pageopacity="0.0"
     inkscape:pageshadow="2"
     inkscape:zoom="1"
     inkscape:cx="228.31519"
     inkscape:cy="221.49747"
     inkscape:document-units="px"
     inkscape:current-layer="layer1"
     showgrid="false"
     inkscape:snap-global="false"
     inkscape:window-width="1024"
     inkscape:window-height="712"
     inkscape:window-x="-4"
     inkscape:window-y="-4"
     inkscape:window-maximized="1" />
  <metadata
     id="metadata7">
    <rdf:RDF>
      <cc:Work
         rdf:about="">
        <dc:format>image/svg+xml</dc:format>
        <dc:type
           rdf:resource="http://purl.org/dc/dcmitype/StillImage" />
        <dc:title />
      </cc:Work>
    </rdf:RDF>
  </metadata>
  <g
     inkscape:label="レイヤー 1"
     inkscape:groupmode="layer"
     id="layer1"
     transform="translate(0,-652.36218)">
    <path
       sodipodi:type="arc"
       style="fill:#ff0000;fill-opacity:1;stroke:none"
       id="path3606"
       sodipodi:cx="173"
       sodipodi:cy="166"
       sodipodi:rx="100"
       sodipodi:ry="100"
       d="m 273,166 a 100,100 0 1 1 -200,0 100,100 0 1 1 200,0 z"
       transform="matrix(0.15155445,-0.0875,0.5,0.8660254,54.281081,636.73946)" />
    <path
       sodipodi:type="arc"
       style="fill:#00ff00;fill-opacity:1;stroke:#000000;stroke-width:10;stroke-miterlimit:4;stroke-opacity:1;stroke-dasharray:none"
       id="path3608"
       sodipodi:cx="369"
       sodipodi:cy="127"
       sodipodi:rx="100"
       sodipodi:ry="100"
       d="m 469,127 a 100,100 0 1 1 -200,0 100,100 0 1 1 200,0 z"
       transform="matrix(0.13832379,-0.07986127,0.5148613,0.89176593,282.57114,683.57673)" />
    <path
       sodipodi:type="arc"
       style="fill:#ff0000;fill-opacity:1;stroke:none"
       id="path3610"
       sodipodi:cx="115"
       sodipodi:cy="272"
       sodipodi:rx="100"
       sodipodi:ry="25"
       d="m 215,272 a 100,25 0 1 1 -200,0 100,25 0 1 1 200,0 z"
       transform="matrix(0.8660254,-0.5,0.5,0.8660254,-109.59292,767.30327)" />
    <path
       sodipodi:type="arc"
       style="fill:#00ff00;fill-opacity:1;stroke:#0000fe;stroke-width:10;stroke-miterlimit:4;stroke-opacity:1;stroke-dasharray:none"
       id="path3612"
       sodipodi:cx="347"
       sodipodi:cy="276"
       sodipodi:rx="99"
       sodipodi:ry="25"
       d="m 446,276 a 99,25 0 1 1 -198,0 99,25 0 1 1 198,0 z"
       transform="matrix(0.8660254,-0.5,0.5,0.8660254,-40.510815,902.83917)" />
  </g>
</svg>
