<?xml version="1.0" encoding="UTF-8" standalone="no"?>
<!-- Generator: Adobe Illustrator 15.1.0, SVG Export Plug-In . SVG Version: 6.00 Build 0)  -->

<svg
   xmlns:dc="http://purl.org/dc/elements/1.1/"
   xmlns:cc="http://creativecommons.org/ns#"
   xmlns:rdf="http://www.w3.org/1999/02/22-rdf-syntax-ns#"
   xmlns:svg="http://www.w3.org/2000/svg"
   xmlns="http://www.w3.org/2000/svg"
   xmlns:sodipodi="http://sodipodi.sourceforge.net/DTD/sodipodi-0.dtd"
   xmlns:inkscape="http://www.inkscape.org/namespaces/inkscape"
   version="1.0"
   id="Layer_1"
   x="0px"
   y="0px"
   width="128"
   height="128"
   viewBox="0 0 128 128"
   enable-background="new 0 0 792 612"
   xml:space="preserve"
   inkscape:version="0.48.3.1 r9886"
   sodipodi:docname="svg2css.svg"><metadata
     id="metadata49"><rdf:RDF><cc:Work
         rdf:about=""><dc:format>image/svg+xml</dc:format><dc:type
           rdf:resource="http://purl.org/dc/dcmitype/StillImage" /><dc:title /></cc:Work></rdf:RDF></metadata><defs
     id="defs47" /><sodipodi:namedview
     pagecolor="#ffffff"
     bordercolor="#666666"
     borderopacity="1"
     objecttolerance="10"
     gridtolerance="10"
     guidetolerance="10"
     inkscape:pageopacity="0"
     inkscape:pageshadow="2"
     inkscape:window-width="1366"
     inkscape:window-height="744"
     id="namedview45"
     showgrid="false"
     inkscape:zoom="2.8284271"
     inkscape:cx="133.80827"
     inkscape:cy="87.659542"
     inkscape:window-x="0"
     inkscape:window-y="24"
     inkscape:window-maximized="1"
     inkscape:current-layer="Layer_1" /><rect
     style="fill:#16a0a7;fill-opacity:1;stroke:none"
     id="rect4326"
     width="128"
     height="128"
     x="0"
     y="-6.9944051e-15"
     inkscape:export-xdpi="90"
     inkscape:export-ydpi="90" /><path
     id="path4344"
     style="fill:#374048;fill-opacity:1"
     d="m 92.909574,37.555556 14.219896,0 0,14.219895 0.004,0 C 107.13347,59.629977 100.76345,66 92.909696,66 85.055169,66 78.689801,59.629977 78.689801,51.775451 l 0,0 0,-20.109044 -0.0039,0 c 0,-7.853752 6.369249,-14.219897 14.223775,-14.219897 7.849874,0 14.219894,6.366145 14.219894,14.219897 l -8.330745,0 c 0,-3.249775 -2.64015,-5.889926 -5.889149,-5.889926 -3.253652,0 -5.889925,2.640151 -5.889925,5.889926 l 0,20.109044 0,0 c 0,3.253652 2.636273,5.889925 5.889925,5.889925 3.248999,0 5.88527,-2.636273 5.889149,-5.886048 l 0,-0.0039 0,-5.885272 -5.889149,0 0,-8.334623 0,0 z M 78.685026,17.445734 68.62546,65.999223 l -8.329969,0 -10.051809,-48.553489 8.32997,0 5.894579,28.435914 5.886822,-28.435914 8.329973,0 z m -52.7177,24.272478 c -2.574225,-2.573448 -4.167312,-6.127257 -4.167312,-10.052582 0,-7.853751 6.370023,-14.219896 14.219896,-14.219896 7.85375,0 14.223772,6.366145 14.223772,14.219896 l -8.32997,0 c 0,-3.252876 -2.64015,-5.889149 -5.893802,-5.889149 -3.252878,0 -5.889149,2.636273 -5.889149,5.889149 0,1.624886 0.660036,3.09698 1.721836,4.159556 l 0.0039,0 c 1.066454,1.070331 1.954518,1.379798 4.163434,1.73037 l 0,0 c 3.929201,0.408741 7.48301,1.593088 10.056462,4.166536 l 0,0 c 2.574222,2.574225 4.16731,6.128034 4.16731,10.053359 0,7.85375 -6.370023,14.223772 -14.223772,14.223772 -7.849873,0 -14.219896,-6.370022 -14.219896,-14.223772 l 8.330746,0 c 0,3.252875 2.636271,5.893026 5.88915,5.893026 3.253651,0 5.893802,-2.640151 5.893802,-5.893026 0,-1.624886 -0.660039,-3.093103 -1.722612,-4.159556 l -0.0039,0 c -1.066453,-1.066454 -2.596716,-1.43409 -4.16731,-1.726493 l 0,-0.0039 C 32.211702,45.301507 28.540776,44.292446 25.967326,41.718221 l 0,0 0,0 z"
     inkscape:connector-curvature="0" /><path
     style="font-size:341.27905273px;font-style:normal;font-variant:normal;font-weight:bold;font-stretch:normal;line-height:125%;letter-spacing:0px;word-spacing:0px;fill:#66cdaa;fill-opacity:1;stroke:none;font-family:Loma;-inkscape-font-specification:Loma Bold"
     d="m 65.158029,28.85 c -6.825614,8.5e-5 -12.298275,1.92647 -16.40625,5.75 -4.108004,3.823645 -6.15625,8.898498 -6.15625,15.25 l 11.125,0 c 0.15798,-3.507512 1.228275,-6.228598 3.1875,-8.15625 1.959167,-1.959139 4.649707,-2.937415 8.0625,-2.9375 0.332919,10e-6 0.644172,0.0062 0.96875,0.03125 l 2,-9.8125 c -0.906605,-0.07736 -1.818515,-0.124987 -2.78125,-0.125 z m 10.71875,2.09375 -2.34375,11.4375 c 1.419683,1.51294 2.124977,3.360074 2.125,5.5625 -2.9e-5,1.896049 -0.366614,3.791916 -1.125,5.65625 -0.758414,1.864448 -1.737098,3.545757 -2.90625,5.0625 -0.584619,0.742613 -1.234055,1.506701 -1.96875,2.3125 l -1.03125,5 -4,0 c -0.8337,0.754922 -1.658143,1.454689 -2.46875,2.125 -1.611634,1.327218 -3.476573,2.917239 -5.59375,4.75 -2.085603,1.832818 -3.828034,3.452682 -5.25,4.90625 -2.559601,2.559602 -4.8526,5.739265 -6.875,9.53125 -1.990798,3.791986 -3.15276,7.736099 -3.46875,11.8125 l 45.9375,0 0,-10.5625 -30.78125,0 c 1.453568,-2.211982 3.716372,-4.688288 6.75,-7.4375 3.033543,-2.749184 6.151789,-5.500787 9.375,-8.25 3.223154,-2.780757 5.60782,-5.165452 7.15625,-7.15625 2.117149,-2.654379 3.890829,-5.620511 5.28125,-8.84375 1.421966,-3.254756 2.124971,-6.15912 2.125,-8.71875 -2.9e-5,-5.719523 -1.987562,-10.366641 -5.9375,-13.9375 -1.488187,-1.345281 -3.144021,-2.411547 -5,-3.25 z"
     id="path4351"
     inkscape:connector-curvature="0" /><g
     style="fill:#374048;fill-opacity:1"
     id="g4334"
     transform="matrix(0.4998848,0,0,0.4998848,-235.86262,44.915375)"><path
       style="fill:#374048;fill-opacity:1"
       inkscape:connector-curvature="0"
       id="path4336"
       d="m 685.164,96.681 h -24.688 l 25.674,27.859 v 13.261 h -52.882 v -15.526 h 25.669 l -25.669,-27.86 v -13.28 h 51.896 v 15.546 l 0,0 z m -62.378,0 h -24.688 l 25.673,27.859 v 13.261 h -52.882 v -15.526 h 25.672 l -25.672,-27.86 v -13.28 h 51.897 v 15.546 z m -61.768,0.631 h -26.64 v 24.313 h 26.64 v 16.176 H 515.444 V 81.135 h 45.574 v 16.177 z" /></g></svg>