<?xml version="1.0" encoding="UTF-8" standalone="no"?>
<!-- Generator: Adobe Illustrator 15.1.0, SVG Export Plug-In . SVG Version: 6.00 Build 0)  -->

<svg
   xmlns:dc="http://purl.org/dc/elements/1.1/"
   xmlns:cc="http://creativecommons.org/ns#"
   xmlns:rdf="http://www.w3.org/1999/02/22-rdf-syntax-ns#"
   xmlns:svg="http://www.w3.org/2000/svg"
   xmlns="http://www.w3.org/2000/svg"
   xmlns:sodipodi="http://sodipodi.sourceforge.net/DTD/sodipodi-0.dtd"
   xmlns:inkscape="http://www.inkscape.org/namespaces/inkscape"
   version="1.0"
   id="Layer_1"
   x="0px"
   y="0px"
   width="128"
   height="128"
   viewBox="0 0 128 128"
   enable-background="new 0 0 792 612"
   xml:space="preserve"
   inkscape:version="0.48.3.1 r9886"
   sodipodi:docname="svg2css.svg"><metadata
   id="metadata49"><rdf:RDF><cc:Work
       rdf:about=""><dc:format>image/svg+xml</dc:format><dc:type
         rdf:resource="http://purl.org/dc/dcmitype/StillImage" /><dc:title /></cc:Work></rdf:RDF></metadata><defs
   id="defs47"><g
     transform="matrix(2,0,0,2,40,158)"
     id="SVG"
     style="fill:#ffffff"><path
       d="M 5.482,31.319 C 2.163,28.001 0.109,23.419 0.109,18.358 0.109,8.232 8.322,0.024 18.443,0.024 c 10.126,0 18.339,8.208 18.339,18.334 l -10.74,0 c 0,-4.194 -3.404,-7.593 -7.599,-7.593 -4.194,0 -7.593,3.399 -7.593,7.593 0,2.095 0.851,3.993 2.22,5.363 l 0.005,0 c 1.375,1.38 2.52,1.779 5.368,2.231 l 0,0 c 5.066,0.527 9.648,2.054 12.966,5.372 l 0,0 c 3.319,3.319 5.373,7.901 5.373,12.962 0,10.126 -8.213,18.339 -18.339,18.339 -10.121,0 -18.334,-8.213 -18.334,-18.339 l 10.741,0 c 0,4.194 3.399,7.598 7.593,7.598 4.195,0 7.599,-3.404 7.599,-7.598 0,-2.095 -0.851,-3.988 -2.221,-5.363 l -0.005,0 c -1.375,-1.375 -3.348,-1.849 -5.373,-2.226 l 0,-0.005 C 13.533,35.939 8.8,34.638 5.482,31.319 l 0,0 0,0 z"
       id="S"
       inkscape:connector-curvature="0" /><path
       d="m 73.452,0.024 -12.97,62.601 -10.74,0 -12.96,-62.601 10.74,0 7.6,36.663 7.59,-36.663 10.74,0 z"
       id="V"
       inkscape:connector-curvature="0" /><path
       d="m 91.792,25.952 18.334,0 0,18.334 0.005,0 c 0,10.127 -8.213,18.34 -18.339,18.34 -10.127,0 -18.334,-8.213 -18.334,-18.34 l 0,0 0,-25.927 -0.005,0 c 0,-10.126 8.212,-18.334 18.339,-18.334 10.121,0 18.334,8.208 18.334,18.334 l -10.741,0 c 0,-4.19 -3.404,-7.594 -7.593,-7.594 -4.195,0 -7.594,3.404 -7.594,7.594 l 0,25.927 0,0 c 0,4.195 3.399,7.594 7.594,7.594 4.189,0 7.588,-3.399 7.593,-7.589 l 0,-0.005 0,-7.588 -7.593,0 0,-10.746 0,0 z"
       id="G"
       inkscape:connector-curvature="0" /></g><g
     transform="matrix(2,0,0,2,40,158)"
     id="SVG-5"
     style="fill:#ffffff"><path
       d="M 5.482,31.319 C 2.163,28.001 0.109,23.419 0.109,18.358 0.109,8.232 8.322,0.024 18.443,0.024 c 10.126,0 18.339,8.208 18.339,18.334 l -10.74,0 c 0,-4.194 -3.404,-7.593 -7.599,-7.593 -4.194,0 -7.593,3.399 -7.593,7.593 0,2.095 0.851,3.993 2.22,5.363 l 0.005,0 c 1.375,1.38 2.52,1.779 5.368,2.231 l 0,0 c 5.066,0.527 9.648,2.054 12.966,5.372 l 0,0 c 3.319,3.319 5.373,7.901 5.373,12.962 0,10.126 -8.213,18.339 -18.339,18.339 -10.121,0 -18.334,-8.213 -18.334,-18.339 l 10.741,0 c 0,4.194 3.399,7.598 7.593,7.598 4.195,0 7.599,-3.404 7.599,-7.598 0,-2.095 -0.851,-3.988 -2.221,-5.363 l -0.005,0 c -1.375,-1.375 -3.348,-1.849 -5.373,-2.226 l 0,-0.005 C 13.533,35.939 8.8,34.638 5.482,31.319 l 0,0 0,0 z"
       id="S-9"
       inkscape:connector-curvature="0" /><path
       d="m 73.452,0.024 -12.97,62.601 -10.74,0 -12.96,-62.601 10.74,0 7.6,36.663 7.59,-36.663 10.74,0 z"
       id="V-0"
       inkscape:connector-curvature="0" /><path
       d="m 91.792,25.952 18.334,0 0,18.334 0.005,0 c 0,10.127 -8.213,18.34 -18.339,18.34 -10.127,0 -18.334,-8.213 -18.334,-18.34 l 0,0 0,-25.927 -0.005,0 c 0,-10.126 8.212,-18.334 18.339,-18.334 10.121,0 18.334,8.208 18.334,18.334 l -10.741,0 c 0,-4.19 -3.404,-7.594 -7.593,-7.594 -4.195,0 -7.594,3.404 -7.594,7.594 l 0,25.927 0,0 c 0,4.195 3.399,7.594 7.594,7.594 4.189,0 7.588,-3.399 7.593,-7.589 l 0,-0.005 0,-7.588 -7.593,0 0,-10.746 0,0 z"
       id="G-2"
       inkscape:connector-curvature="0" /></g></defs><sodipodi:namedview
   pagecolor="#ffffff"
   bordercolor="#666666"
   borderopacity="1"
   objecttolerance="10"
   gridtolerance="10"
   guidetolerance="10"
   inkscape:pageopacity="0"
   inkscape:pageshadow="2"
   inkscape:window-width="1366"
   inkscape:window-height="744"
   id="namedview45"
   showgrid="false"
   inkscape:zoom="0.70710678"
   inkscape:cx="544.87765"
   inkscape:cy="141.34634"
   inkscape:window-x="0"
   inkscape:window-y="24"
   inkscape:window-maximized="1"
   inkscape:current-layer="Layer_1" />





<g
   id="g3268"
   transform="translate(122.28814,63.53695)" /><rect
   style="fill:#ffffff;fill-opacity:1;stroke:none"
   id="rect4318"
   width="82.983047"
   height="414.91525"
   x="2068.4185"
   y="-288.59543"
   transform="matrix(0.96592583,0.25881905,-0.25881905,0.96592583,0,0)" /><rect
   style="fill:#16a0a7;fill-opacity:1;stroke:none"
   id="rect4326"
   width="128"
   height="128"
   x="0"
   y="-6.9944051e-15"
   inkscape:export-xdpi="90"
   inkscape:export-ydpi="90" /><g
   id="g3005"
   transform="scale(0.28444444,0.28444444)"><path
     id="path4340"
     d="m 91.504855,146.64279 c -9.050009,-9.04728 -14.650707,-21.54114 -14.650707,-35.34111 0,-27.610844 22.394612,-49.991822 49.991822,-49.991822 27.61084,0 50.00545,22.380978 50.00545,49.991822 l -29.28505,0 c 0,-11.435894 -9.28178,-20.70404 -20.7204,-20.70404 -11.4359,0 -20.70404,9.268146 -20.70404,20.70404 0,5.71249 2.32044,10.88782 6.05333,14.62344 l 0.0136,0 c 3.74925,3.76288 6.87135,4.85085 14.63707,6.08333 l 0,0 c 13.8136,1.43698 26.30746,5.6007 35.35475,14.64798 l 0,0 c 9.05,9.05001 14.6507,21.54387 14.6507,35.34384 0,27.61084 -22.39461,50.00545 -50.00545,50.00545 -27.59721,0 -49.991822,-22.39461 -49.991822,-50.00545 l 29.287782,0 c 0,11.43589 9.26814,20.71767 20.70404,20.71767 11.43862,0 20.7204,-9.28178 20.7204,-20.71767 0,-5.71249 -2.32045,-10.87419 -6.05606,-14.62344 l -0.0136,0 c -3.74925,-3.74925 -9.12908,-5.04172 -14.6507,-6.0697 l 0,-0.0136 c -13.38823,-2.05322 -26.29383,-5.6007 -35.341115,-14.65071 l 0,0 0,0 z"
     inkscape:connector-curvature="0"
     style="fill:#374048;fill-opacity:1" /><path
     id="path4342"
     d="m 276.84052,61.309858 -35.36566,170.695862 -29.28505,0 -35.33839,-170.695862 29.28505,0 20.72313,99.970012 20.69586,-99.970012 29.28506,0 z"
     inkscape:connector-curvature="0"
     style="fill:#354048;fill-opacity:1" /><path
     id="path4344"
     d="m 326.8487,132.00845 49.99182,0 0,49.99182 0.0136,0 c 0,27.61357 -22.39461,50.00818 -50.00545,50.00818 -27.61357,0 -49.99182,-22.39461 -49.99182,-50.00818 l 0,0 0,-70.69586 -0.0136,0 c 0,-27.610847 22.39189,-49.991825 50.00546,-49.991825 27.5972,0 49.99182,22.380978 49.99182,49.991825 l -29.28778,0 c 0,-11.42499 -9.28178,-20.70677 -20.70404,-20.70677 -11.43862,0 -20.70677,9.28178 -20.70677,20.70677 l 0,70.69586 0,0 c 0,11.43862 9.26815,20.70677 20.70677,20.70677 11.42226,0 20.6904,-9.26815 20.70404,-20.69314 l 0,-0.0136 0,-20.69041 -20.70404,0 0,-29.30141 0,0 z"
     inkscape:connector-curvature="0"
     style="fill:#374048;fill-opacity:1" /></g><g
   style="font-size:341.27905273px;font-style:normal;font-variant:normal;font-weight:normal;font-stretch:normal;line-height:125%;letter-spacing:0px;word-spacing:0px;fill:#66cdaa;fill-opacity:1;stroke:none;font-family:TakaoPGothic;-inkscape-font-specification:TakaoPGothic"
   id="text4346"
   transform="matrix(0.28444444,0,0,0.28444444,-479.46442,-355.16746)"><path
     d="m 1914.8664,1350.1552 c 22.9962,3e-4 41.4377,6.2771 55.3245,18.8304 13.8865,12.5538 20.8299,28.8845 20.83,48.9922 -10e-5,8.9987 -2.4997,19.2193 -7.4988,30.6618 -4.8882,11.3317 -11.0539,21.6633 -18.497,30.9951 -5.4437,6.9989 -13.8313,15.3865 -25.1627,25.1626 -11.3316,9.6652 -22.3299,19.3303 -32.9947,28.9954 -10.6651,9.6652 -18.5527,18.386 -23.6629,26.1625 l 108.1494,0 0,37.1608 -161.4743,0 c 1.1109,-14.3311 5.1658,-28.1622 12.1647,-41.4934 7.11,-13.3312 15.1643,-24.4961 24.1629,-33.4947 4.9991,-5.1102 11.1648,-10.8871 18.497,-17.3306 7.4432,-6.4433 13.9977,-11.998 19.6636,-16.664 5.7767,-4.7769 11.7202,-10.1649 17.8305,-16.1641 6.2211,-6.11 11.3869,-11.7758 15.4975,-16.9973 4.1103,-5.3323 7.4987,-11.2758 10.165,-17.8305 2.6662,-6.5543 3.9993,-13.1644 3.9994,-19.8302 -10e-5,-9.6649 -3.8884,-17.4414 -11.6648,-23.3296 -7.6656,-5.9988 -16.3308,-8.9983 -25.9959,-8.9986 -11.9981,3e-4 -21.4411,3.4441 -28.3288,10.3317 -6.8879,6.7769 -10.6095,16.331 -11.1649,28.6621 l -39.1604,0 c 0,-22.3295 7.221,-40.2156 21.6632,-53.6581 14.4421,-13.4421 33.6612,-20.1632 57.6575,-20.1635"
     style="font-weight:bold;font-family:Loma;-inkscape-font-specification:Loma Bold"
     id="path4351"
     inkscape:connector-curvature="0" /></g><g
   id="g4332"
   transform="matrix(0.4998848,0,0,0.4998848,-235.8019,-275.29335)"
   style="fill:#374048;fill-opacity:1"><g
     transform="translate(0,640.52542)"
     id="g4334"
     style="fill:#374048;fill-opacity:1">
	<path
   d="m 685.164,96.681 h -24.688 l 25.674,27.859 v 13.261 h -52.882 v -15.526 h 25.669 l -25.669,-27.86 v -13.28 h 51.896 v 15.546 l 0,0 z m -62.378,0 h -24.688 l 25.673,27.859 v 13.261 h -52.882 v -15.526 h 25.672 l -25.672,-27.86 v -13.28 h 51.897 v 15.546 z m -61.768,0.631 h -26.64 v 24.313 h 26.64 v 16.176 H 515.444 V 81.135 h 45.574 v 16.177 z"
   id="path4336"
   inkscape:connector-curvature="0"
   style="fill:#374048;fill-opacity:1" />
</g></g><path
   style="fill:#354048;fill-opacity:1"
   d="m 70.420033,17.432752 -5.893319,28.435542 -0.337806,-1.626653 0,21.751097 4.497806,0 10.062223,-48.559986 -8.328904,0 z"
   id="path4353"
   inkscape:connector-curvature="0" /></svg>